<svg xmlns="http://www.w3.org/2000/svg" width="28px" height="28px" fill="none" viewBox="0 0 24 24"><rect width="24" height="24" fill="#000" rx="4"></rect><path fill="#fff" fill-rule="evenodd" d="M6 6a2 2 0 012-2h8a2 2 0 012 2v11a2 2 0 01-1 1.732v.018a1.25 1.25 0 01-2.475.25h-5.05A1.25 1.25 0 017 18.75v-.018A2 2 0 016 17V6zm1 2a1 1 0 011-1h8a1 1 0 011 1v5.5a2 2 0 01-2 2H9a2 2 0 01-2-2V8zm2.5-3a.5.5 0 000 1h5a.5.5 0 000-1h-5zM15 17a.5.5 0 01.5-.5h1a.5.5 0 01.5.5v.5a.5.5 0 01-.5.5h-1a.5.5 0 01-.5-.5V17zm-7.5-.5a.5.5 0 00-.5.5v.5a.5.5 0 00.5.5h1a.5.5 0 00.5-.5V17a.5.5 0 00-.5-.5h-1z" clip-rule="evenodd"></path></svg>